<?xml version="1.0" encoding="UTF-8"?>
<svg width="350px" height="187px" viewBox="0 0 350 187" version="1.1" xmlns="http://www.w3.org/2000/svg" xmlns:xlink="http://www.w3.org/1999/xlink">
    <!-- Generator: Sketch 51.3 (57544) - http://www.bohemiancoding.com/sketch -->
    <title>404</title>
    <desc>Created with Sketch.</desc>
    <defs></defs>
    <g id="Page-1" stroke="none" stroke-width="1" fill="none" fill-rule="evenodd">
        <g id="404">
            <path d="M270.279,178.314 C267.776,181.561 264.835,183.973 265.48,185.068 C265.48,185.068 266.813,186.037 270.489,186.037 C276.793,186.037 282.987,185.557 281.97,184.918 C280.561,184.033 276.479,183.713 272.58,182.363 C271.616,182.029 274.689,180.162 273.85,179.857 C272.112,179.225 270.759,178.678 270.279,178.314" id="Fill-4" fill="#252A41" fill-rule="nonzero"></path>
            <path d="M335.225,184.875 C335.225,184.875 336.053,186.037 339.231,186.037 C344.682,186.037 350.362,185.297 349.483,184.744 C348.265,183.98 338.712,181.986 338.712,181.986 L336.57,179.326 L332.938,181.336 L335.225,184.875" id="Fill-5" fill="#252A41" fill-rule="nonzero"></path>
            <path d="M317.957,104.551 C314.048,104.551 311.092,103.77 310.845,103.703 C308.806,103.146 307.604,101.043 308.16,99.004 C308.715,96.967 310.812,95.768 312.848,96.314 C312.981,96.35 321.588,98.555 326.611,94.244 C329.974,91.357 331.251,85.922 330.408,78.087 L330.14,75.588 L337.879,71.203 C339.721,70.161 342.055,70.807 343.096,72.646 C344.138,74.485 343.491,76.821 341.652,77.862 L338.23,79.801 C338.771,89.029 336.529,95.848 331.552,100.09 C327.355,103.666 322.117,104.551 317.957,104.551" id="Fill-6" fill="#008FBE" fill-rule="nonzero"></path>
            <path d="M331.202,83.314 C331.057,88.881 329.578,92.908 326.772,95.314 C321.262,100.045 311.823,97.633 311.661,97.59 C309.424,96.986 307.123,98.307 306.514,100.541 C305.903,102.779 307.223,105.09 309.461,105.701 C309.732,105.773 312.981,107.395 317.27,107.242 C333.554,106.664 343.382,92.617 343.563,84.428 L331.202,83.314" id="Fill-7" fill="#D0EAE7" fill-rule="nonzero"></path>
            <path d="M308.812,63.835 C307.353,63.181 305.919,62.473 304.507,61.73 C291.014,69.414 273.774,79.258 273.433,79.601 C273.433,79.601 282.001,93.244 282.549,93.791 C282.9,94.143 304.146,78.902 319.431,67.859 C315.904,66.494 312.268,65.385 308.812,63.835" id="Fill-8" fill="#0C7DA4" fill-rule="nonzero"></path>
            <path d="M309.032,63.443 C312.565,65.001 316.277,66.133 319.869,67.544 C328.284,61.463 334.789,56.73 334.789,56.73 L320.406,52.689 C320.406,52.689 313.485,56.618 304.958,61.473 C306.296,62.171 307.651,62.833 309.032,63.443" id="Fill-9" fill="#009BBD" fill-rule="nonzero"></path>
            <polyline id="Fill-10" fill="#2B587C" fill-rule="nonzero" points="284.238 45.533 292.706 68.458 309.26 74.533 288.291 36.229 284.238 45.533"></polyline>
            <polyline id="Fill-11" fill="#2B587C" fill-rule="nonzero" points="310.161 80.164 297.896 80.164 308.813 99.234 325.454 106.25 310.161 80.164"></polyline>
            <path d="M287.562,41.612 L286.505,42.232 L283.634,86.719 L306.237,73.468 L287.562,41.612 Z M325.454,106.25 L315.69,89.594 L273.921,114.082 L265.707,100.07 L270.865,16.766 L289.636,5.762 L323.421,63.395 L334.789,56.73 L344.243,72.857 L332.875,79.521 L342.639,96.176 L325.454,106.25 Z" id="Fill-12" fill="#1F6A92" fill-rule="nonzero"></path>
            <polyline id="Fill-13" fill="#0C7DA4" fill-rule="nonzero" points="251.821 96.258 265.707 100.07 273.921 114.082 259.249 110.365 251.821 96.258"></polyline>
            <polyline id="Fill-14" fill="#009BBD" fill-rule="nonzero" points="251.821 96.258 265.707 100.07 270.865 16.766 258.125 13.717 251.821 96.258"></polyline>
            <polyline id="Fill-15" fill="#00B5CF" fill-rule="nonzero" points="258.125 13.717 270.865 16.766 289.636 5.762 276.734 2.011 258.125 13.717"></polyline>
            <path d="M286.061,129.453 C286.061,129.453 288.102,151.467 288.102,159.178 C288.102,159.178 272.072,171.672 268.147,178.207 C269.833,179.49 273.165,181.193 275.348,181.127 C286.043,170.914 297.782,163.625 297.782,163.625 C297.782,163.625 302.847,148.936 304.423,136.498 L286.061,129.453" id="Fill-16" fill="#252A41" fill-rule="nonzero"></path>
            <path d="M297.485,130.492 C301.095,130.518 304.783,129.896 307.888,128.211 C306.846,123.814 309.065,110.844 311.853,103.912 C311.853,103.912 314.051,99.086 312.51,97.604 C306.808,92.119 301.955,92.568 300.446,92.508 C295.212,96.926 285.473,109.965 285.863,127.197 C288.553,130.023 294.016,130.469 297.485,130.492" id="Fill-17" fill="#D0EAE7" fill-rule="nonzero"></path>
            <path d="M332.844,181.941 C334.931,181.361 336.932,180.396 338.216,178.689 C332.026,168.65 309.329,131.777 308.1,128.891 C308.068,128.816 308.04,128.73 308.011,128.646 C304.678,130.443 300.7,131.076 296.845,130.928 C293.486,130.799 288.625,130.328 285.883,127.842 C285.89,128.02 285.891,128.195 285.899,128.375 C286.373,138 318.301,170.092 330.865,182.363 C331.557,182.262 332.229,182.111 332.844,181.941" id="Fill-18" fill="#2F3658" fill-rule="nonzero"></path>
            <path d="M266.936,120.512 C266.049,120.512 265.197,120.385 264.384,120.111 C262.696,119.547 260.463,118.125 259.408,114.566 C258.808,112.539 259.963,110.408 261.99,109.809 C264.017,109.207 266.146,110.365 266.746,112.391 C266.817,112.627 266.883,112.777 266.93,112.865 C267.338,112.883 268.854,112.75 272.543,110.582 C275.839,108.646 279.738,105.762 283.509,102.973 C289.88,98.258 295.897,93.807 300.867,92.234 C302.881,91.596 305.032,92.715 305.67,94.729 C306.308,96.744 305.191,98.895 303.177,99.531 C299.424,100.719 293.647,104.994 288.061,109.125 C279.882,115.176 272.67,120.512 266.936,120.512" id="Fill-19" fill="#008FBE" fill-rule="nonzero"></path>
            <path d="M274.096,117.65 C273.627,115.396 273.136,112.908 271.709,111.057 C268.624,112.766 267.306,112.881 266.93,112.865 C266.883,112.777 266.817,112.627 266.746,112.391 C266.146,110.365 264.017,109.207 261.99,109.809 C259.963,110.408 258.808,112.539 259.408,114.566 C260.463,118.125 262.696,119.547 264.384,120.111 C265.197,120.385 266.049,120.512 266.936,120.512 C269.159,120.512 271.605,119.707 274.244,118.371 C274.194,118.131 274.146,117.891 274.096,117.65" id="Fill-20" fill="#008FBE" fill-rule="nonzero"></path>
            <path d="M305.67,94.729 C305.032,92.715 302.881,91.596 300.867,92.234 C295.897,93.807 289.88,98.258 283.509,102.973 C279.738,105.762 275.839,108.646 272.543,110.582 C272.393,110.672 272.251,110.75 272.107,110.832 C273.538,112.723 276.015,122.047 276.059,122.26 C280.116,120.137 299.582,105.318 303.802,100.846 C305.253,99.309 306.308,96.744 305.67,94.729" id="Fill-21" fill="#D0EAE7" fill-rule="nonzero"></path>
            <path d="M261.523,117.42 C261.297,117.42 261.068,117.352 260.87,117.211 C257.867,115.064 256.301,110.934 256.235,110.76 C256.019,110.178 256.313,109.529 256.896,109.311 C257.478,109.096 258.126,109.389 258.344,109.971 C258.358,110.008 259.742,113.639 262.179,115.379 C262.685,115.74 262.802,116.443 262.44,116.947 C262.221,117.256 261.875,117.42 261.523,117.42" id="Fill-22" fill="#008FBE" fill-rule="nonzero"></path>
            <path d="M261.525,114.676 C261.172,114.676 260.824,114.51 260.605,114.199 C259.169,112.164 258.018,107.328 257.891,106.785 C257.751,106.18 258.127,105.574 258.732,105.434 C259.34,105.289 259.943,105.67 260.084,106.275 C260.401,107.637 261.442,111.48 262.443,112.9 C262.803,113.408 262.682,114.111 262.174,114.469 C261.977,114.609 261.75,114.676 261.525,114.676" id="Fill-23" fill="#008FBE" fill-rule="nonzero"></path>
            <path d="M263.078,114.043 C262.634,114.043 262.213,113.779 262.035,113.342 C261.004,110.814 260.602,105.514 260.585,105.289 C260.539,104.67 261.004,104.131 261.624,104.084 C262.247,104.033 262.783,104.504 262.83,105.123 C262.936,106.555 263.375,110.668 264.119,112.492 C264.354,113.068 264.078,113.725 263.503,113.959 C263.363,114.016 263.22,114.043 263.078,114.043" id="Fill-24" fill="#008FBE" fill-rule="nonzero"></path>
            <path d="M264.767,113.5 C264.265,113.5 263.809,113.164 263.677,112.656 C262.969,109.906 263.614,107.102 263.643,106.984 C263.785,106.379 264.394,106.006 264.996,106.146 C265.601,106.289 265.976,106.895 265.834,107.5 C265.822,107.553 265.295,109.91 265.857,112.094 C266.013,112.697 265.649,113.311 265.048,113.465 C264.954,113.49 264.859,113.5 264.767,113.5" id="Fill-25" fill="#008FBE" fill-rule="nonzero"></path>
            <path d="M310.02,100.846 C309.504,100.846 308.98,100.734 308.483,100.5 C306.685,99.65 305.916,97.502 306.767,95.705 C307.655,93.824 309.26,91.898 309.44,91.684 C310.725,90.164 312.995,89.973 314.516,91.256 C316.035,92.537 316.229,94.807 314.949,96.328 C314.498,96.863 313.646,98.004 313.279,98.783 C312.664,100.084 311.369,100.846 310.02,100.846" id="Fill-26" fill="#008FBE" fill-rule="nonzero"></path>
            <path d="M310.539,98.992 C310.965,99.463 311.412,99.906 311.877,100.328 C312.467,99.975 312.963,99.451 313.279,98.783 C313.646,98.004 314.498,96.863 314.949,96.328 C316.229,94.807 316.035,92.537 314.516,91.256 C312.995,89.973 310.725,90.164 309.44,91.684 C309.369,91.77 309.076,92.121 308.693,92.629 C308.726,94.898 308.964,97.256 310.539,98.992" id="Fill-27" fill="#0775AF" fill-rule="nonzero"></path>
            <path d="M322.367,95.018 C320.934,98.494 316.954,100.152 313.477,98.719 C310,97.285 308.343,93.305 309.776,89.826 L311.578,85.457 C313.012,81.979 316.993,80.322 320.47,81.756 C323.946,83.189 325.603,87.17 324.169,90.646 L322.367,95.018" id="Fill-28" fill="#008FBE" fill-rule="nonzero"></path>
            <path d="M310.538,89.318 C309.984,91.658 306.623,90.908 305.361,89.686 C303.622,88.004 302.584,83.244 306.438,83.498 C303.662,79.308 313.076,74.764 314.064,79.606 C314.8,78.357 315.552,77.235 317.189,77.129 C318.368,77.054 320.433,77.966 320.262,79.411 C322.013,78.027 324.563,78.134 326.295,79.533 C326.849,79.981 327.848,80.977 327.348,81.703 C327.073,82.104 325.654,82.227 325.18,82.371 C325.999,82 329.354,82.748 328.693,84.143 C328.386,84.793 326.744,84.209 326.264,84.07 C326.264,84.07 326.259,84.223 326.264,84.217 C328.056,85.199 328.794,86.195 328.579,88.426 C328.48,89.451 327.995,91.389 326.775,91.535 C326.15,91.609 325.429,91.215 325.439,90.561 C326.937,92.055 324.816,96.055 322.926,94.082 C322.185,93.309 322.542,92.012 323.245,91.344 C322.127,90.701 319.701,87.301 321.427,86.391 C320.62,86.41 316.885,85.143 318.073,84.068 C318.387,85.314 316.844,86.928 315.616,86.287 C316.38,87.949 314.134,89.189 312.754,89.248 C313.599,90.311 310.995,91.572 310.2,90.031 L310.538,89.318" id="Fill-29" fill="#2F3658" fill-rule="nonzero"></path>
            <path d="M182.592,75.726 C182.592,75.726 180.406,67.359 191.249,65.371 L190.423,75.425 L182.592,75.726" id="Fill-30" fill="#1874AD" fill-rule="nonzero"></path>
            <path d="M139.146,96.854 C136.771,96.854 134.564,96.373 132.529,95.41 C122.68,90.756 121.585,76.773 121.544,76.18 C121.396,74.071 122.984,72.242 125.093,72.093 C127.197,71.947 129.024,73.529 129.178,75.633 C129.392,78.447 131,86.236 135.815,88.498 C139.792,90.365 145.96,88.465 153.654,83 C155.377,81.775 157.767,82.182 158.99,83.904 C160.214,85.629 159.809,88.018 158.085,89.242 C150.949,94.309 144.608,96.854 139.146,96.854" id="Fill-31" fill="#BAD6D2" fill-rule="nonzero"></path>
            <path d="M159.51,104.035 C160.574,101.242 161.561,98.406 162.71,95.645 C161.936,95.584 161.154,95.484 160.361,95.334 C156.648,94.625 153.505,93.115 150.932,90.803 C148.355,88.492 146.367,85.563 144.965,82.02 C143.562,78.475 142.746,74.447 142.518,69.93 C142.287,65.416 142.652,60.65 143.61,55.631 C144.588,50.514 146.011,45.926 147.879,41.862 C149.747,37.799 151.985,34.378 154.597,31.601 C157.206,28.824 160.134,26.836 163.38,25.636 C166.624,24.437 170.104,24.189 173.816,24.899 C176.756,25.461 179.345,26.569 181.598,28.205 C182.683,26.04 183.849,23.915 184.959,21.795 C186.271,19.288 187.488,16.734 188.654,14.158 C189.152,13.056 189.584,11.922 190.036,10.797 C186.273,8.652 182.057,7.13 177.382,6.237 C170.759,4.972 164.524,5.211 158.681,6.955 C152.834,8.699 147.572,11.618 142.89,15.715 C138.207,19.813 134.233,24.957 130.973,31.144 C127.709,37.333 125.352,44.241 123.896,51.865 C122.438,59.492 122.083,66.783 122.837,73.737 C123.587,80.691 125.385,86.936 128.228,92.471 C131.07,98.006 134.885,102.662 139.678,106.436 C144.139,109.951 149.395,112.377 155.445,113.717 C156.878,110.521 158.264,107.311 159.51,104.035" id="Fill-32" fill="#009BBD" fill-rule="nonzero"></path>
            <path d="M211.341,46.497 C210.588,39.542 208.792,33.296 205.95,27.762 C203.107,22.227 199.29,17.573 194.501,13.797 C193.211,12.781 191.853,11.859 190.431,11.025 C189.982,12.149 189.554,13.282 189.047,14.379 C187.858,16.946 186.668,19.509 185.352,22.015 C184.23,24.148 183.054,26.288 181.963,28.469 C182.351,28.765 182.729,29.073 183.096,29.401 C185.669,31.714 187.683,34.646 189.136,38.199 C190.589,41.752 191.436,45.763 191.675,50.228 C191.913,54.694 191.544,59.484 190.567,64.601 C189.609,69.62 188.19,74.185 186.313,78.296 C184.436,82.41 182.165,85.85 179.505,88.617 C176.844,91.385 173.892,93.371 170.647,94.568 C168.255,95.453 165.764,95.82 163.175,95.678 C161.901,98.699 160.829,101.811 159.668,104.869 C158.519,107.895 157.228,110.861 155.898,113.813 C156.197,113.875 156.495,113.938 156.797,113.996 C163.418,115.262 169.65,115.021 175.496,113.277 C181.34,111.535 186.604,108.615 191.287,104.518 C195.971,100.42 199.941,95.277 203.204,89.088 C206.466,82.902 208.826,75.994 210.283,68.368 C211.739,60.744 212.091,53.452 211.341,46.497" id="Fill-33" fill="#2B587C" fill-rule="nonzero"></path>
            <path d="M172.056,99.309 C175.668,99.998 179.095,99.744 182.341,98.543 C185.585,97.346 188.538,95.359 191.199,92.592 C193.858,89.824 196.129,86.385 198.007,82.271 C199.885,78.16 201.303,73.594 202.261,68.576 C203.238,63.458 203.607,58.669 203.368,54.202 C203.13,49.737 202.282,45.727 200.831,42.174 C199.377,38.62 197.362,35.688 194.79,33.376 C192.214,31.065 189.122,29.563 185.511,28.874 C181.797,28.164 178.317,28.412 175.074,29.61 C171.827,30.811 168.9,32.798 166.29,35.576 C163.679,38.353 161.44,41.773 159.573,45.836 C157.704,49.9 156.282,54.488 155.305,59.606 C154.346,64.625 153.981,69.391 154.211,73.905 C154.44,78.421 155.255,82.449 156.659,85.994 C158.062,89.537 160.049,92.467 162.625,94.777 C165.198,97.09 168.342,98.6 172.056,99.309 Z M168.49,117.971 C161.868,116.705 156.161,114.184 151.371,110.41 C146.578,106.637 142.764,101.98 139.922,96.445 C137.078,90.91 135.281,84.666 134.53,77.71 C133.777,70.757 134.133,63.466 135.589,55.84 C137.045,48.216 139.402,41.308 142.667,35.119 C145.928,28.932 149.901,23.787 154.584,19.69 C159.267,15.593 164.528,12.673 170.375,10.929 C176.219,9.186 182.452,8.946 189.075,10.211 C195.696,11.476 201.401,13.997 206.193,17.771 C210.984,21.548 214.801,26.201 217.644,31.736 C220.487,37.271 222.281,43.517 223.035,50.471 C223.785,57.427 223.434,64.718 221.977,72.342 C220.52,79.968 218.16,86.875 214.898,93.063 C211.635,99.252 207.664,104.395 202.981,108.492 C198.299,112.59 193.034,115.51 187.19,117.252 C181.344,118.994 175.112,119.236 168.49,117.971 Z" id="Fill-34" fill="#1F6A92" fill-rule="nonzero"></path>
            <path d="M236.003,61.772 L236.295,75.841 C236.295,75.841 232.277,79.442 228.678,75.841 L230.005,59.997 L236.003,61.772" id="Fill-35" fill="#2F3658" fill-rule="nonzero"></path>
            <path d="M219.432,174.004 C219.202,173.822 217.634,173.092 217.417,172.91 C216.575,174.172 215.986,174.867 214.974,175.914 C217.454,178.076 216.816,180.703 216.816,180.703 C216.816,180.703 215.062,182.213 214.375,182.553 C212.187,183.631 208.149,185.129 208.149,185.129 L218.316,185.926 L225.857,178.201 C223.185,176.709 221.136,175.352 219.432,174.004" id="Fill-36" fill="#252A41" fill-rule="nonzero"></path>
            <path d="M179.598,174.555 C177.979,174.271 175.935,175.512 174.617,174.555 C174.312,177.383 174.37,178.926 174.37,178.926 L159.328,185.129 L178.538,185.129 C178.711,183.082 178.344,181.117 178.62,179.221 C178.761,178.246 179.421,175.494 179.598,174.555" id="Fill-37" fill="#252A41" fill-rule="nonzero"></path>
            <path d="M197.108,106.283 L180.111,138.58 C180.111,138.58 186.998,144.406 193.779,146.348 L206.521,108.295 L197.108,106.283" id="Fill-38" fill="#BAD6D2" fill-rule="nonzero"></path>
            <path d="M215.72,176.723 C216.739,175.68 217.581,174.436 218.42,173.172 C214.023,169.404 211.872,165.521 205.897,158.84 C203.426,156.074 209.974,140.238 211.563,137.582 C214.42,132.809 214.861,129.348 217.095,121.178 L200.495,127.379 C196.544,141.533 191.94,155.689 196.556,162.441 C201.433,169.58 210.088,175.33 214.265,178.201 C214.424,178.311 215.581,176.617 215.72,176.723" id="Fill-39" fill="#252A41" fill-rule="nonzero"></path>
            <path d="M187.769,74.065 C187.541,74.065 187.313,73.997 187.113,73.854 C186.608,73.492 186.493,72.788 186.855,72.284 C188.192,70.42 188.486,68.887 188.489,68.872 C188.602,68.264 189.183,67.856 189.795,67.964 C190.404,68.073 190.812,68.65 190.707,69.26 C190.692,69.342 190.344,71.284 188.685,73.595 C188.465,73.902 188.119,74.065 187.769,74.065" id="Fill-40" fill="#008FBE" fill-rule="nonzero"></path>
            <path d="M215.916,124.6 C220.857,111.033 225.076,89.744 226.656,81.248 C225.773,80.881 224.907,80.605 224.22,80.414 C222.754,80.01 220.997,79.533 219.494,80 C218.731,80.238 218.052,80.631 217.386,81.049 C216.77,82.893 216.516,84.447 216.516,84.447 C216.516,84.447 205.902,104.736 198.987,118.572 C204.86,119.889 210.604,121.818 215.916,124.6" id="Fill-41" fill="#E5DD93" fill-rule="nonzero"></path>
            <path d="M198.788,118.988 C198.785,118.986 198.783,118.986 198.78,118.984 C198.168,120.211 197.586,121.385 197.046,122.484 C197.045,122.484 197.041,122.484 197.041,122.484 C195.681,124.895 194.215,127.123 192.795,129.264 C179.138,149.855 173.98,166.268 173.069,174.035 C174.373,175.053 179.305,175.629 180.948,175.914 C183.468,163.039 190.024,154.82 201.771,145.109 C205.702,141.859 208.643,137.73 211.227,134.303 C212.767,132.26 214.295,128.984 215.762,125.018 C210.438,122.227 204.672,120.301 198.788,118.988" id="Fill-42" fill="#2F3658" fill-rule="nonzero"></path>
            <path d="M185.535,124.652 C183.949,124.652 182.467,123.66 181.919,122.078 C181.227,120.08 182.284,117.9 184.281,117.209 C188.925,115.6 196.046,109.252 200.848,102.443 C210.592,88.627 217.433,80.967 217.72,80.646 C219.131,79.074 221.551,78.942 223.124,80.354 C224.696,81.764 224.828,84.184 223.417,85.756 C223.35,85.832 216.563,93.439 207.103,106.854 C202.363,113.574 193.983,121.945 186.788,124.439 C186.374,124.584 185.951,124.652 185.535,124.652" id="Fill-43" fill="#008FBE" fill-rule="nonzero"></path>
            <path d="M223.969,82.516 C223.881,82.516 223.792,82.512 223.702,82.506 C221.719,82.359 220.229,80.635 220.373,78.65 C220.525,76.576 221.328,74.201 221.42,73.936 C222.069,72.056 224.119,71.058 226,71.708 C227.879,72.356 228.877,74.404 228.23,76.284 C228.004,76.946 227.62,78.317 227.558,79.175 C227.419,81.07 225.839,82.514 223.969,82.516" id="Fill-44" fill="#008FBE" fill-rule="nonzero"></path>
            <path d="M225.023,78.716 C225.66,79.448 226.355,80.1 227.092,80.695 C227.351,80.242 227.517,79.729 227.558,79.175 C227.62,78.317 228.004,76.946 228.23,76.284 C228.877,74.404 227.879,72.356 226,71.708 C224.44,71.168 222.767,71.766 221.869,73.057 C222.201,75.091 223.862,77.383 225.023,78.716" id="Fill-45" fill="#0775AF" fill-rule="nonzero"></path>
            <path d="M234.304,70.918 C234.22,74.677 231.104,77.657 227.343,77.573 C223.583,77.488 220.604,74.372 220.688,70.612 L220.794,65.886 C220.878,62.125 223.995,59.146 227.755,59.23 C231.515,59.315 234.494,62.431 234.41,66.191 L234.304,70.918" id="Fill-46" fill="#008FBE" fill-rule="nonzero"></path>
            <path d="M180.131,123.596 C178.561,123.596 176.764,123.174 174.753,122.328 C174.181,122.088 173.911,121.428 174.151,120.855 C174.393,120.281 175.052,120.012 175.625,120.252 C178.588,121.498 180.946,121.676 182.447,120.768 C182.98,120.445 183.671,120.617 183.993,121.148 C184.314,121.68 184.145,122.371 183.612,122.693 C182.618,123.295 181.455,123.596 180.131,123.596" id="Fill-47" fill="#008FBE" fill-rule="nonzero"></path>
            <path d="M181.479,125.232 C179.688,125.232 178.251,124.885 176.616,124.488 L176.109,124.367 C175.505,124.223 175.132,123.615 175.277,123.01 C175.421,122.406 176.029,122.029 176.634,122.178 L177.146,122.301 C179.875,122.961 181.68,123.398 185.671,122.367 C186.276,122.213 186.887,122.574 187.042,123.176 C187.197,123.779 186.835,124.393 186.233,124.549 C184.31,125.045 182.799,125.232 181.479,125.232" id="Fill-48" fill="#008FBE" fill-rule="nonzero"></path>
            <path d="M180.054,121.379 C176.521,121.379 174.1,119.205 173.979,119.094 C173.521,118.674 173.489,117.963 173.909,117.504 C174.328,117.047 175.037,117.016 175.496,117.432 C175.608,117.533 178.197,119.814 181.68,118.918 C182.285,118.762 182.896,119.125 183.051,119.727 C183.206,120.328 182.844,120.943 182.241,121.098 C181.477,121.295 180.743,121.379 180.054,121.379" id="Fill-49" fill="#008FBE" fill-rule="nonzero"></path>
            <path d="M182.413,120.17 C182.369,120.17 182.325,120.166 182.281,120.162 C178.447,119.713 176.889,116.953 176.824,116.836 C176.525,116.291 176.725,115.607 177.27,115.307 C177.811,115.01 178.491,115.205 178.793,115.744 C178.846,115.836 179.909,117.617 182.542,117.926 C183.16,117.998 183.602,118.557 183.529,119.174 C183.463,119.746 182.977,120.17 182.413,120.17" id="Fill-50" fill="#008FBE" fill-rule="nonzero"></path>
            <path d="M195.864,75.689 C195.804,75.689 195.742,75.684 195.68,75.673 C193.816,75.365 188.72,74.563 187.535,74.563 C186.913,74.563 186.409,74.059 186.409,73.437 C186.409,72.816 186.913,72.311 187.535,72.311 C189.119,72.311 195.343,73.335 196.047,73.453 C196.66,73.554 197.076,74.133 196.974,74.747 C196.883,75.297 196.405,75.689 195.864,75.689" id="Fill-51" fill="#008FBE" fill-rule="nonzero"></path>
            <path d="M195.144,78.052 C195.046,78.052 194.945,78.04 194.847,78.012 C194.793,77.998 189.44,76.541 186.95,76.399 C186.329,76.364 185.855,75.832 185.891,75.211 C185.926,74.59 186.462,74.101 187.078,74.152 C189.805,74.307 195.212,75.779 195.44,75.841 C196.04,76.005 196.393,76.624 196.229,77.223 C196.093,77.724 195.639,78.052 195.144,78.052" id="Fill-52" fill="#008FBE" fill-rule="nonzero"></path>
            <path d="M194.602,80.527 C194.486,80.527 194.37,80.51 194.256,80.475 C189.188,78.838 187.938,78.738 187.268,78.684 C186.977,78.661 186.703,78.638 186.329,78.54 C185.729,78.38 185.37,77.765 185.528,77.164 C185.688,76.563 186.304,76.206 186.905,76.363 C187.084,76.411 187.213,76.421 187.447,76.44 C188.264,76.505 189.629,76.616 194.947,78.332 C195.538,78.522 195.863,79.157 195.673,79.749 C195.519,80.225 195.077,80.527 194.602,80.527" id="Fill-53" fill="#008FBE" fill-rule="nonzero"></path>
            <path d="M192.375,82.33 C192.349,82.33 192.321,82.328 192.294,82.326 C187.218,81.963 187.007,79.208 187,78.894 L189.251,78.841 C189.251,78.841 189.254,78.815 189.245,78.768 C189.247,78.78 189.479,79.869 192.455,80.082 C193.074,80.125 193.541,80.664 193.497,81.283 C193.454,81.877 192.961,82.33 192.375,82.33" id="Fill-54" fill="#008FBE" fill-rule="nonzero"></path>
            <path d="M188.125,80.979 C188.125,80.979 187.148,80.527 185.626,80.527 C184.346,80.527 182.606,78.355 182.606,76.101 C182.606,76.101 181.981,69.455 188.997,72.461 L188.125,80.979" id="Fill-55" fill="#008FBE" fill-rule="nonzero"></path>
            <path d="M210.219,100.734 L200.383,149.16 C200.383,149.16 215.615,152.83 224.958,147.449 L227.321,80.164 C227.321,80.164 216.866,76.505 210.219,100.734" id="Fill-56" fill="#BAD6D2" fill-rule="nonzero"></path>
            <path d="M212.496,127.379 L221.918,126.873 C221.918,126.873 222.144,141.281 216.516,140.719 C216.516,140.719 208.814,142.402 212.496,127.379" id="Fill-57" fill="#D0EAE7" fill-rule="nonzero"></path>
            <path d="M224.326,79.013 C223.292,78.085 221.958,77.575 220.569,77.575 C218.973,77.575 217.444,78.255 216.38,79.443 C216.092,79.765 209.209,87.463 199.377,101.404 C198.733,102.316 198.025,103.248 197.271,104.174 L196.271,105.4 L197.361,106.549 C198.521,107.775 199.739,108.971 200.916,110.125 C201.555,110.752 202.193,111.379 202.824,112.012 L204.215,113.406 L205.479,111.896 C206.608,110.551 207.649,109.203 208.575,107.893 C217.977,94.561 224.691,87.035 224.759,86.959 C226.829,84.65 226.635,81.084 224.326,79.013" id="Fill-58" fill="#D0EAE7" fill-rule="nonzero"></path>
            <polyline id="Fill-59" fill="#F3FAFB" fill-rule="nonzero" points="204.583 114.201 194.679 105.303 198.481 101.072 208.386 109.969 204.583 114.201"></polyline>
            <path d="M213.853,73.621 L222.507,77.012 C222.507,77.012 226.187,59.107 223.501,56.422 C223.501,56.422 213.853,55.508 213.853,73.621" id="Fill-60" fill="#2F3658" fill-rule="nonzero"></path>
            <path d="M224.001,59.54 C224.308,59.997 231.022,64.478 236.295,63.238 C236.295,63.238 235.394,55.323 223.086,56.463 L224.001,59.54" id="Fill-61" fill="#2F3658" fill-rule="nonzero"></path>
            <path d="M229.186,67.981 C229.186,70.06 227.5,71.745 225.422,71.745 C223.344,71.745 221.659,70.06 221.659,67.981 C221.659,65.903 223.344,64.219 225.422,64.219 C227.5,64.219 229.186,65.903 229.186,67.981 Z" id="Stroke-62" stroke="#C5CA69" stroke-width="0.868"></path>
            <path d="M237.685,68.719 C237.685,70.527 236.22,71.993 234.412,71.993 C232.604,71.993 231.139,70.527 231.139,68.719 C231.139,66.911 232.604,65.446 234.412,65.446 C236.22,65.446 237.685,66.911 237.685,68.719 Z" id="Stroke-63" stroke="#C5CA69" stroke-width="0.755"></path>
            <path d="M229.186,67.981 C229.186,67.981 230.435,67.493 231.179,68.237" id="Stroke-64" stroke="#C5CA69" stroke-width="0.868"></path>
            <path d="M119.695,74.573 C119.607,74.573 119.52,74.569 119.43,74.562 C117.445,74.417 115.955,72.691 116.1,70.707 C116.252,68.633 117.055,66.258 117.146,65.994 C117.795,64.114 119.846,63.115 121.727,63.765 C123.605,64.414 124.604,66.461 123.957,68.34 C123.73,69.003 123.347,70.374 123.284,71.233 C123.146,73.127 121.565,74.572 119.695,74.573" id="Fill-65" fill="#0775AF" fill-rule="nonzero"></path>
            <path d="M117.557,174.533 C123.522,177.287 128.418,177.23 128.813,177.287 C132.702,170.365 144.42,151.621 133.76,136.238 L118.683,128.135 C118.683,128.135 133.76,143.865 117.557,174.533" id="Fill-66" fill="#252A41" fill-rule="nonzero"></path>
            <path d="M125.361,180.66 C125.361,180.66 126.754,177.834 127.842,175.936 C127.025,175.836 123.374,175.688 121.874,175.111 C120.466,177.986 117.398,182.199 115.231,185.088 L135.491,185.088 L125.361,180.66" id="Fill-67" fill="#252A41" fill-rule="nonzero"></path>
            <path d="M150.424,137.139 C147.904,132.248 129.604,117.52 127.945,109.061 C127.799,108.313 127.673,107.543 127.564,106.756 C124.625,108.311 120.81,108.732 117.786,108.887 C114.357,109.061 112.308,109.273 108.989,107.658 C109.271,112.908 108.416,117.977 111.479,123.295 C117.557,133.846 137.753,142.881 140.006,146.367 C144.448,153.246 145.984,168.178 147.497,177.287 C149.875,177.287 155.513,177.184 157.83,176.361 C157.048,171.689 158.317,152.461 150.424,137.139" id="Fill-68" fill="#2F3658" fill-rule="nonzero"></path>
            <path d="M156.731,179.842 C156.731,179.842 156.074,177.178 155.877,175.936 C153.559,176.75 152.21,175.93 149.825,175.935935 C150.187,178.195 149.919,182.418 150.128,184.896 L169.338,184.896 L156.731,179.842" id="Fill-69" fill="#252A41" fill-rule="nonzero"></path>
            <path d="M117.927,111.65 C120.853,111.516 126.998,110.701 129.464,108.236 C128.959,104.221 127.164,97.76 127.796,92.561 C129.938,74.932 121.331,69.648 121.331,69.648 C121.331,69.648 117.368,66.877 114.156,70.187 C109.314,75.174 104.59,89.277 105.063,110.127 C108.401,111.85 114.419,111.811 117.927,111.65" id="Fill-70" fill="#BAD6D2" fill-rule="nonzero"></path>
            <path d="M162.071,117.215 C161.785,117.215 161.494,117.184 161.203,117.115 C147.332,113.896 135.585,105.586 127.231,93.08 C120.972,83.711 118.81,75.302 118.72,74.949 C118.203,72.899 119.446,70.819 121.496,70.304 C123.544,69.787 125.622,71.027 126.141,73.074 C126.181,73.227 128.174,80.791 133.74,89.045 C141.085,99.932 150.906,106.869 162.933,109.66 C164.992,110.137 166.273,112.193 165.796,114.252 C165.386,116.02 163.812,117.215 162.071,117.215" id="Fill-71" fill="#008FBE" fill-rule="nonzero"></path>
            <path d="M153.64,105.717 C145.997,102.098 139.49,96.361 134.301,88.666 C128.802,80.514 126.813,72.98 126.796,72.908 C126.289,70.908 124.495,69.511 122.435,69.511 C122.064,69.511 121.692,69.557 121.331,69.648 C120.165,69.942 119.183,70.672 118.566,71.705 C117.949,72.737 117.771,73.948 118.065,75.114 L118.084,75.197 C118.676,77.773 121.042,86.834 126.67,95.256 C133.406,105.342 142.546,112.891 153.101,117.09 C153.181,117.121 153.266,117.137 153.351,117.137 C153.483,117.137 153.616,117.098 153.729,117.02 C153.914,116.895 154.025,116.686 154.025,116.461 L154.025,106.326 C154.025,106.064 153.875,105.828 153.64,105.717" id="Fill-72" fill="#D0EAE7" fill-rule="nonzero"></path>
            <path d="M164.914,117.488 C163.688,117.488 162.386,117.352 161.011,117.076 C160.4,116.955 160.006,116.361 160.127,115.752 C160.249,115.143 160.841,114.746 161.452,114.869 C164.804,115.539 167.6,115.295 169.764,114.143 C170.313,113.85 170.994,114.059 171.286,114.607 C171.578,115.156 171.37,115.838 170.821,116.129 C169.121,117.035 167.145,117.488 164.914,117.488" id="Fill-73" fill="#008FBE" fill-rule="nonzero"></path>
            <path d="M165.073,114.969 C164.537,114.969 163.985,114.934 163.425,114.852 C162.81,114.762 162.384,114.189 162.474,113.574 C162.563,112.959 163.133,112.533 163.75,112.623 C167.35,113.15 170.683,111.281 170.717,111.262 C171.257,110.955 171.943,111.141 172.252,111.68 C172.561,112.219 172.376,112.904 171.838,113.215 C171.696,113.295 168.742,114.969 165.073,114.969" id="Fill-74" fill="#008FBE" fill-rule="nonzero"></path>
            <path d="M164.074,112.754 C163.899,112.754 163.721,112.748 163.538,112.736 C162.917,112.697 162.446,112.164 162.485,111.543 C162.524,110.922 163.06,110.451 163.68,110.49 C166.343,110.654 167.74,109.037 167.753,109.021 C168.145,108.537 168.854,108.465 169.336,108.857 C169.818,109.248 169.893,109.957 169.5,110.439 C169.42,110.539 167.578,112.754 164.074,112.754" id="Fill-75" fill="#008FBE" fill-rule="nonzero"></path>
            <path d="M160.182,110.855 C159.561,110.855 159.056,110.352 159.056,109.73 C159.056,109.111 159.557,108.607 160.176,108.605 C160.276,108.604 162.499,108.553 163.771,106.721 C164.125,106.209 164.826,106.084 165.337,106.438 C165.848,106.791 165.975,107.492 165.62,108.004 C163.663,110.824 160.322,110.855 160.182,110.855" id="Fill-76" fill="#008FBE" fill-rule="nonzero"></path>
            <path d="M156.502,85.451 C156.151,85.451 155.806,85.289 155.586,84.982 C153.926,82.67 153.577,80.729 153.563,80.646 C153.457,80.035 153.868,79.453 154.481,79.347 C155.091,79.241 155.675,79.652 155.781,80.266 C155.783,80.273 156.078,81.807 157.415,83.67 C157.777,84.176 157.662,84.879 157.156,85.24 C156.959,85.383 156.729,85.451 156.502,85.451" id="Fill-77" fill="#008FBE" fill-rule="nonzero"></path>
            <path d="M156.737,85.949 C156.667,85.949 156.595,85.943 156.523,85.93 C154.062,85.457 149.176,85.451 149.126,85.451 C148.505,85.451 148.001,84.947 148.001,84.326 C148.001,83.705 148.505,83.201 149.126,83.201 C149.335,83.201 154.275,83.207 156.947,83.719 C157.558,83.834 157.958,84.424 157.841,85.035 C157.738,85.574 157.266,85.949 156.737,85.949" id="Fill-78" fill="#008FBE" fill-rule="nonzero"></path>
            <path d="M148.509,88.293 C147.949,88.293 147.464,87.875 147.393,87.307 C147.316,86.689 147.754,86.127 148.371,86.051 C149.086,85.961 155.408,85.191 157.453,85.555 C158.065,85.662 158.473,86.246 158.364,86.859 C158.256,87.471 157.67,87.881 157.06,87.77 C155.771,87.543 151.217,87.965 148.649,88.283 C148.602,88.289 148.555,88.293 148.509,88.293" id="Fill-79" fill="#008FBE" fill-rule="nonzero"></path>
            <path d="M149.972,90.838 C149.443,90.838 148.972,90.465 148.868,89.926 C148.75,89.314 149.15,88.725 149.761,88.607 C152.487,88.082 153.215,87.85 154.535,87.424 C155.153,87.225 155.923,86.979 157.07,86.645 C157.666,86.473 158.292,86.816 158.465,87.412 C158.638,88.01 158.294,88.635 157.696,88.807 C156.581,89.131 155.86,89.363 155.225,89.566 C153.867,90.004 153.047,90.268 150.187,90.818 C150.114,90.832 150.042,90.838 149.972,90.838" id="Fill-80" fill="#008FBE" fill-rule="nonzero"></path>
            <path d="M152.396,92.627 C151.858,92.627 151.382,92.24 151.288,91.691 C151.184,91.078 151.596,90.496 152.208,90.393 C155.854,89.768 156.58,88.408 156.584,88.395 C156.779,87.803 157.415,87.482 158.006,87.678 C158.596,87.873 158.916,88.51 158.722,89.1 C158.577,89.535 157.605,91.752 152.588,92.611 C152.523,92.621 152.46,92.627 152.396,92.627" id="Fill-81" fill="#008FBE" fill-rule="nonzero"></path>
            <path d="M156.735,91.271 L155.877,82.098 C155.877,82.098 159.901,82.391 159.893,86.607 C159.89,88.016 159.484,89.584 156.735,91.271" id="Fill-82" fill="#008FBE" fill-rule="nonzero"></path>
            <path d="M131.405,61.385 C132.421,65.225 130.131,69.164 126.29,70.179 C122.448,71.195 118.511,68.906 117.494,65.064 L116.217,60.236 C115.201,56.395 117.491,52.457 121.332,51.441 C125.174,50.424 129.111,52.714 130.128,56.556 L131.405,61.385" id="Fill-83" fill="#008FBE" fill-rule="nonzero"></path>
            <path d="M130.73,58.833 C130.185,60.356 129.41,61.866 128.223,62.892 C125.327,65.391 120.887,66.065 117.363,64.567 L117.494,65.064 C118.511,68.906 122.448,71.195 126.29,70.179 C130.131,69.164 132.421,65.225 131.405,61.385 L130.73,58.833" id="Fill-84" fill="#2F3658" fill-rule="nonzero"></path>
            <path d="M117.473,64.799 C114.771,63.064 111.853,56.47 116.121,55.026 C118.762,54.133 117.698,62.273 117.698,64.574 L117.473,64.799" id="Fill-85" fill="#2F3658" fill-rule="nonzero"></path>
            <path d="M115.304,55.57 C112.038,53.204 116.085,46.51 124.154,46.51 C129.142,46.51 129.105,50.331 125.656,52.393 C122.794,54.104 118.355,53.102 116.205,56.02 L115.304,55.57" id="Fill-86" fill="#2F3658" fill-rule="nonzero"></path>
            <path d="M130.729,60.309 C129.585,58.575 127.332,55.062 126.456,53.084 C125.9,51.828 125.139,49.686 127.655,51.208 C129.762,52.481 130.905,56.971 130.707,59.247 L130.729,60.309" id="Fill-87" fill="#2F3658" fill-rule="nonzero"></path>
            <path d="M73.706,76.315 C72.464,77.464 71.097,78.536 69.977,79.817 L53.729,113.758 L65.824,98.145 L78.671,71.588 C77.028,73.176 75.384,74.764 73.706,76.315" id="Fill-88" fill="#2B587C" fill-rule="nonzero"></path>
            <path d="M64.069,70.743 C65.248,69.131 66.382,67.237 67.723,65.571 L39.283,51.686 L12.3,54.388 L59.579,76.19 C61.13,74.422 62.688,72.632 64.069,70.743" id="Fill-89" fill="#2B587C" fill-rule="nonzero"></path>
            <path d="M68.128,65.77 C66.616,67.661 65.39,69.886 63.938,71.653 C62.636,73.239 61.328,74.822 59.991,76.38 L81.485,86.291 L89.289,76.101 L68.128,65.77" id="Fill-90" fill="#009BBD" fill-rule="nonzero"></path>
            <path d="M68.114,37.576 L67.009,37.046 L28.537,59.568 L52.17,70.883 L68.114,37.576 Z M35.762,105.156 L44.099,87.742 L0.426,66.836 L7.439,52.187 L79.357,9.832 L98.982,19.227 L70.136,79.483 L82.021,85.174 L73.95,102.033 L62.064,96.344 L53.729,113.758 L35.762,105.156 Z" id="Fill-91" fill="#1F6A92" fill-rule="nonzero"></path>
            <polyline id="Fill-92" fill="#2B587C" fill-rule="nonzero" points="82.021 85.174 89.289 76.101 83.586 88.746 73.682 102.58 82.021 85.174"></polyline>
            <path d="M79.238,71.083 L107.599,8.915 L98.982,19.227 L70.136,79.483 C70.94,78.708 78.779,71.542 79.238,71.083" id="Fill-93" fill="#2B587C" fill-rule="nonzero"></path>
            <polyline id="Fill-94" fill="#0087BD" fill-rule="nonzero" points="7.439 52.187 20.255 41.031 90.527 0.698 79.357 9.832 7.439 52.187"></polyline>
            <polyline id="Fill-95" fill="#00B5CF" fill-rule="nonzero" points="79.357 9.832 98.982 19.227 107.599 8.915 90.527 0.698 79.357 9.832"></polyline>
            <path d="M53.018,63.16 C53.39,62.506 53.645,62.011 53.883,61.519 C53.681,61.998 53.398,62.544 53.018,63.16 Z M55.272,55.241 C52.858,53.525 51.196,54.276 50.037,54.456 C48.768,54.652 47.828,53.959 47.823,53.956 C47.302,53.618 46.604,53.766 46.267,54.288 C45.928,54.809 46.077,55.506 46.599,55.844 C46.651,55.879 47.634,56.503 49.35,56.954 C47.478,58.66 45.569,60.72 45.463,60.835 C45.041,61.292 45.069,62.004 45.526,62.426 C45.742,62.626 46.017,62.725 46.289,62.725 C46.593,62.725 46.895,62.603 47.116,62.363 C47.138,62.34 48.468,60.905 49.953,59.474 C48.574,61.199 47.28,62.994 47.044,63.324 C46.682,63.83 46.798,64.533 47.303,64.895 C47.501,65.038 47.73,65.105 47.958,65.105 C48.308,65.105 48.653,64.943 48.873,64.636 C49.609,63.608 50.649,62.218 51.642,60.971 C51.272,61.701 50.804,62.528 49.865,64.039 C49.537,64.567 49.698,65.261 50.227,65.589 C50.411,65.704 50.617,65.758 50.819,65.758 C51.196,65.758 51.563,65.57 51.777,65.227 C52.163,64.605 52.475,64.091 52.735,63.648 C52.539,64.137 52.708,64.711 53.166,65.01 C53.355,65.133 53.568,65.192 53.779,65.192 C54.147,65.192 54.508,65.011 54.724,64.68 C55.778,63.057 56.29,61.732 56.51,60.689 L56.556,60.724 C57.182,57.56 56.42,56.056 55.272,55.241 Z" id="Fill-96" fill="#008FBE" fill-rule="nonzero"></path>
            <path d="M20.799,68.007 C17.235,67.805 12.064,74.781 17.355,76.679 C12.565,76.566 11.394,83.336 15.784,85.205 C8.096,83.709 8.99,93.672 12.627,97.277 C10.162,96.883 7.671,99.238 8.044,101.803 C8.42,104.385 9.443,107.965 15.832,109.883 C22.222,111.801 26.127,108.209 29.306,104.822 C31.341,108.98 41.4,103.361 40.285,98.387 C44.081,99.732 47.482,95.424 47.559,91.982 C47.633,88.623 45.28,86.059 43.043,83.877 C44.619,82.434 44.918,79.757 44.503,77.712 C43.813,74.315 39.56,73.977 39.56,71.273 C39.56,70.327 39.741,67.388 38.935,66.097 C37.651,64.042 35.417,62.008 32.606,63.012 C20.799,57.411 20.799,68.007 20.799,68.007" id="Fill-97" fill="#2F3658" fill-rule="nonzero"></path>
            <path d="M27.684,177.287 C24.436,176.721 23.912,176.883 20.704,176.1 L13.276,185.178 L42.091,185.178 L25.357,180.676 L27.684,177.287" id="Fill-98" fill="#252A41" fill-rule="nonzero"></path>
            <path d="M81.335,179.889 L79.632,177.652 C78.095,178.646 76.495,179.496 74.759,180.1 L79.309,185.178 L96.192,185.178 L81.335,179.889" id="Fill-99" fill="#252A41" fill-rule="nonzero"></path>
            <path d="M17.653,177.316 C20.881,178.107 24.108,178.93 27.376,179.484 L51.17,150.211 L47.118,138.58 L30.459,119.371 L35.258,146.594 L17.653,177.316" id="Fill-100" fill="#252A41" fill-rule="nonzero"></path>
            <path d="M50.014,111.311 C43.485,109.578 34.635,111.77 28.283,114.166 C28.283,114.166 32.179,129.676 34.736,134.303 C42.185,147.773 74.399,181.395 74.399,181.395 C76.168,180.793 79.577,178.297 81.138,177.287 L50.014,111.311" id="Fill-101" fill="#2F3658" fill-rule="nonzero"></path>
            <path d="M27.42,120.232 C33.724,117.865 46.369,113.873 52.858,115.494 C52.858,115.494 44.265,95.309 40.364,90.855 C37.731,87.852 23.358,79.394 23.358,90.451 C23.358,105.602 27.42,120.232 27.42,120.232" id="Fill-102" fill="#BAD6D2" fill-rule="nonzero"></path>
            <path d="M33.023,89.508 C32.939,89.537 32.855,89.563 32.768,89.588 C30.848,90.105 28.871,88.969 28.353,87.049 C27.811,85.041 27.785,82.533 27.783,82.254 C27.774,80.264 29.381,78.645 31.37,78.637 C33.358,78.628 34.977,80.232 34.987,82.219 C34.992,82.92 35.083,84.34 35.307,85.17 C35.802,87.006 34.788,88.891 33.023,89.508" id="Fill-103" fill="#008FBE" fill-rule="nonzero"></path>
            <path d="M35.426,85.947 C35.413,85.689 35.377,85.43 35.307,85.17 C35.083,84.34 34.992,82.92 34.987,82.219 C34.977,80.232 33.358,78.628 31.37,78.637 C29.381,78.645 27.774,80.264 27.783,82.254 C27.783,82.299 27.785,82.408 27.788,82.559 C29.563,84.563 32.488,85.506 35.426,85.947" id="Fill-104" fill="#0775AF" fill-rule="nonzero"></path>
            <path d="M38.948,75.149 C40.11,78.726 38.152,82.566 34.575,83.73 C30.998,84.891 27.156,82.934 25.994,79.357 L24.534,74.861 C23.372,71.284 25.33,67.442 28.906,66.28 C32.483,65.118 36.325,67.075 37.487,70.653 L38.948,75.149" id="Fill-105" fill="#008FBE" fill-rule="nonzero"></path>
            <path d="M79.057,71.535 C78.914,71.415 78.749,71.341 78.579,71.303 C78.743,71.124 78.919,70.931 79.124,70.709 C79.545,70.252 79.516,69.54 79.059,69.119 C79.002,69.067 78.942,69.022 78.879,68.984 C79.193,68.533 79.141,67.91 78.728,67.523 C78.407,67.224 77.962,67.152 77.576,67.291 C78.089,66.772 78.408,66.413 78.446,66.369 C78.857,65.902 78.813,65.191 78.346,64.78 C77.88,64.369 77.168,64.414 76.758,64.881 C76.731,64.91 74.284,67.668 71.768,69.104 C70.676,67.453 69.211,66.874 69.127,66.842 C68.55,66.623 67.912,66.913 67.687,67.487 C67.462,68.061 67.748,68.711 68.319,68.943 C68.369,68.963 69.229,69.328 69.898,70.357 C69.806,70.612 69.698,70.974 69.637,71.398 C53.072,93.818 31.108,85.859 30.113,85.482 C28.146,84.729 25.937,85.705 25.174,87.672 C24.409,89.643 25.388,91.859 27.358,92.623 C27.626,92.727 33.003,94.771 40.672,94.771 C42.214,94.771 43.85,94.689 45.554,94.49 C53.822,93.531 66.052,88.768 75.825,76.174 C75.985,76.083 76.212,75.942 76.511,75.724 C76.712,75.594 76.915,75.452 77.122,75.28 L77.096,75.26 C77.674,74.774 78.387,74.085 79.196,73.12 C79.596,72.643 79.533,71.933 79.057,71.535" id="Fill-106" fill="#008FBE" fill-rule="nonzero"></path>
            <path d="M48.564,85.541 L47.632,85.742 C45.357,86.232 43.003,86.482 40.633,86.482 C34.826,86.482 30.793,85.018 30.355,84.852 C29.837,84.652 29.294,84.553 28.743,84.553 C26.869,84.553 25.222,85.68 24.544,87.428 C24.109,88.549 24.032,89.824 24.622,90.871 C26.82,94.771 32.856,96.348 40.672,96.348 C42.334,96.348 44.002,96.252 45.631,96.064 C46.627,95.949 47.673,95.777 48.739,95.553 L49.395,95.381 C49.395,95.381 48.457,92.539 48.258,89.652 C48.181,88.553 48.564,85.541 48.564,85.541" id="Fill-107" fill="#D0EAE7" fill-rule="nonzero"></path>
            <path d="M24.382,78.475 C26.746,76.973 27.563,74.159 27.303,71.345 C29.376,72.739 31.016,71.888 32.311,69.494 C36.238,74.998 42.225,66.809 34.062,63.844 C27.532,61.472 21.133,67.929 22.806,74.422 L24.382,78.475" id="Fill-108" fill="#2F3658" fill-rule="nonzero"></path>
        </g>
    </g>
</svg>